<?xml version="1.0" encoding="UTF-8"?>
<svg xmlns="http://www.w3.org/2000/svg" xmlns:xlink="http://www.w3.org/1999/xlink" width="62px" height="80px" viewBox="0 0 62 80" version="1.1">
<g id="surface1">
<path style=" stroke:none;fill-rule:nonzero;fill:rgb(0%,0%,0%);fill-opacity:1;" d="M 0.0351562 7.359375 C -0.0234375 18.175781 -0.00390625 63.027344 0.0507812 63.789062 C 0.167969 65.371094 0.496094 66.46875 1.113281 67.320312 C 1.367188 67.679688 1.890625 68.191406 2.246094 68.441406 C 2.917969 68.917969 2.972656 68.9375 24.050781 76.871094 C 27.289062 78.089844 30.078125 79.15625 30.25 79.242188 C 30.421875 79.328125 30.648438 79.460938 30.761719 79.542969 L 30.964844 79.6875 L 31.175781 79.542969 C 31.289062 79.460938 31.527344 79.328125 31.699219 79.242188 C 31.867188 79.15625 36.332031 77.457031 41.617188 75.464844 C 57.636719 69.429688 58.496094 69.101562 58.898438 68.902344 C 59.5 68.605469 60 68.238281 60.441406 67.777344 C 61.316406 66.859375 61.757812 65.652344 61.894531 63.789062 C 61.953125 63.027344 61.96875 18.363281 61.914062 7.433594 L 61.882812 0.308594 L 0.0664062 0.308594 Z M 44.617188 4.527344 L 57.597656 4.558594 L 57.632812 5.734375 C 57.683594 7.445312 57.691406 15.691406 57.648438 25.996094 L 57.617188 34.972656 L 57.484375 35.996094 C 56.953125 39.96875 56.28125 42.316406 54.882812 45.070312 C 53.5 47.796875 51.894531 49.992188 49.683594 52.167969 C 48.375 53.453125 47.203125 54.398438 45.699219 55.382812 C 41.96875 57.820312 37.710938 59.328125 33.296875 59.753906 C 32.4375 59.835938 29.785156 59.835938 28.90625 59.75 C 24.230469 59.300781 20.03125 57.859375 16.25 55.421875 C 14.796875 54.484375 13.597656 53.523438 12.28125 52.246094 C 10.855469 50.867188 9.914062 49.734375 8.757812 48.007812 C 7.300781 45.839844 6.351562 43.914062 5.558594 41.5 C 4.9375 39.597656 4.546875 37.636719 4.339844 35.382812 C 4.292969 34.882812 4.257812 14.167969 4.285156 5.597656 L 4.289062 4.492188 L 17.96875 4.492188 C 25.492188 4.492188 37.484375 4.507812 44.617188 4.527344 Z M 11.910156 54.03125 C 14.507812 56.304688 16.875 57.816406 19.59375 58.945312 C 22.578125 60.1875 25.203125 60.890625 28.007812 61.195312 C 29.035156 61.308594 31.480469 61.355469 32.578125 61.277344 C 37.523438 60.933594 41.804688 59.550781 46.074219 56.910156 C 47.515625 56.015625 48.625 55.164062 49.910156 53.964844 C 50.855469 53.085938 51.1875 52.804688 51.277344 52.804688 C 51.367188 52.804688 51.878906 53.347656 52.476562 54.082031 C 53.214844 54.992188 53.097656 54.929688 53.707031 54.710938 C 55.09375 54.21875 55.695312 54.136719 56.457031 54.328125 C 56.992188 54.460938 57.273438 54.621094 57.628906 55.003906 C 58.167969 55.578125 58.402344 56.277344 58.410156 57.320312 C 58.410156 57.871094 58.390625 58.046875 58.292969 58.339844 C 58 59.238281 57.40625 59.628906 55.960938 59.851562 C 54.316406 60.109375 53.890625 60.234375 53.511719 60.566406 C 53.191406 60.839844 53.09375 61.105469 53.125 61.617188 C 53.195312 62.800781 54.207031 63.296875 55.5 62.777344 C 55.785156 62.667969 56.191406 62.414062 57.03125 61.839844 C 57.242188 61.695312 57.4375 61.582031 57.472656 61.582031 C 57.566406 61.582031 57.609375 62.277344 57.550781 62.941406 C 57.496094 63.570312 57.28125 64.265625 57.003906 64.742188 C 56.730469 65.203125 56.074219 65.839844 55.59375 66.105469 C 54.121094 66.921875 52.054688 67 49.992188 66.320312 C 48.933594 65.972656 47.730469 65.308594 46.820312 64.574219 C 46.417969 64.253906 45.96875 63.738281 46.019531 63.65625 C 46.070312 63.570312 46.734375 63.179688 47.6875 62.652344 C 49.632812 61.597656 51.664062 60.167969 53.460938 58.605469 C 54.234375 57.933594 54.484375 57.746094 54.828125 57.570312 C 55.179688 57.390625 55.296875 57.414062 55.582031 57.671875 C 55.71875 57.800781 55.890625 57.917969 55.976562 57.9375 C 56.109375 57.96875 56.121094 57.964844 56.082031 57.851562 C 55.964844 57.460938 55.660156 57.210938 55.242188 57.160156 C 54.777344 57.105469 54.589844 57.222656 52.507812 58.941406 C 51.742188 59.570312 50.84375 60.277344 50.503906 60.519531 C 45.777344 63.847656 40.644531 65.832031 34.980469 66.523438 C 33.164062 66.75 31.316406 66.851562 30.3125 66.785156 C 24.457031 66.390625 19.9375 65.308594 15.835938 63.316406 C 13.261719 62.058594 11.097656 60.609375 8.8125 58.605469 C 8.085938 57.96875 7.75 57.746094 7.390625 57.648438 C 6.96875 57.539062 6.5625 57.691406 6.320312 58.054688 C 6.070312 58.414062 6.222656 58.445312 6.691406 58.136719 C 7.042969 57.902344 7.175781 57.878906 7.449219 58 C 7.566406 58.050781 8.230469 58.539062 8.914062 59.085938 C 11.414062 61.082031 12.808594 62.015625 14.910156 63.101562 C 16.082031 63.710938 16.535156 63.964844 16.535156 64.027344 C 16.535156 64.101562 15.785156 64.742188 15.304688 65.089844 C 14.738281 65.488281 13.578125 66.066406 12.855469 66.300781 C 10.125 67.191406 7.632812 66.804688 6.195312 65.265625 C 5.371094 64.378906 5.121094 63.535156 5.25 62.023438 C 5.269531 61.789062 5.304688 61.632812 5.34375 61.632812 C 5.375 61.632812 5.667969 61.804688 5.996094 62.019531 C 7.664062 63.101562 8.648438 63.277344 9.257812 62.605469 C 9.53125 62.304688 9.71875 61.816406 9.71875 61.40625 C 9.71875 60.632812 9.054688 60.234375 7.234375 59.921875 C 5.820312 59.6875 5.421875 59.535156 4.992188 59.082031 C 4.546875 58.609375 4.316406 57.996094 4.324219 57.246094 C 4.332031 56.703125 4.4375 56.265625 4.699219 55.738281 C 4.949219 55.242188 5.222656 54.917969 5.636719 54.648438 C 6.382812 54.160156 7.242188 54.105469 8.421875 54.472656 C 9.460938 54.804688 9.320312 54.847656 9.738281 54.070312 C 9.941406 53.710938 10.1875 53.269531 10.296875 53.101562 C 10.476562 52.820312 10.5 52.800781 10.582031 52.871094 C 10.628906 52.914062 11.226562 53.433594 11.910156 54.03125 Z M 11.910156 54.03125 "/>
<path style=" stroke:none;fill-rule:nonzero;fill:rgb(0%,0%,0%);fill-opacity:1;" d="M 55.675781 10.035156 C 55.308594 10.5 54.507812 11.679688 54.398438 11.921875 C 54.304688 12.117188 54.304688 12.320312 54.359375 17.835938 C 54.410156 23.148438 54.394531 28.402344 54.324219 29.007812 L 54.292969 29.273438 L 53.738281 29.628906 C 53.234375 29.964844 52.902344 30.152344 52.828125 30.152344 C 52.8125 30.152344 52.804688 29.226562 52.804688 28.097656 C 52.804688 26.964844 52.789062 23.382812 52.769531 20.132812 L 52.738281 14.230469 L 52.566406 14.398438 C 52.289062 14.675781 50.753906 16.867188 50.558594 17.265625 C 50.457031 17.464844 50.351562 17.742188 50.328125 17.882812 C 50.296875 18.035156 50.296875 20.75 50.324219 24.785156 C 50.347656 28.636719 50.347656 31.5 50.324219 31.589844 C 50.242188 31.859375 50.132812 31.980469 49.746094 32.199219 C 49.535156 32.3125 49.242188 32.484375 49.097656 32.582031 C 48.949219 32.679688 48.816406 32.753906 48.796875 32.753906 C 48.785156 32.753906 48.773438 29.835938 48.773438 26.265625 L 48.773438 19.777344 L 48.566406 19.976562 C 48.453125 20.085938 48.113281 20.523438 47.808594 20.945312 C 47.503906 21.363281 47.082031 21.941406 46.878906 22.222656 C 46.667969 22.5 46.449219 22.832031 46.382812 22.960938 L 46.265625 23.191406 L 46.234375 28.828125 C 46.214844 32.398438 46.179688 34.679688 46.144531 35.050781 C 45.871094 37.804688 45.09375 39.757812 43.207031 42.492188 C 42.910156 42.917969 42.675781 43.28125 42.691406 43.296875 C 42.703125 43.308594 43.0625 43.507812 43.488281 43.746094 C 46.28125 45.28125 47.785156 46.582031 49.453125 48.910156 C 49.683594 49.226562 49.90625 49.492188 49.945312 49.492188 C 50.035156 49.492188 50.074219 49.449219 50.664062 48.699219 C 52.320312 46.605469 53.5 44.546875 54.375 42.234375 C 55.382812 39.550781 55.808594 37.445312 55.953125 34.441406 C 56.019531 33.128906 56.03125 10.144531 55.96875 9.898438 L 55.921875 9.722656 Z M 55.675781 10.035156 "/>
<path style=" stroke:none;fill-rule:nonzero;fill:rgb(0%,0%,0%);fill-opacity:1;" d="M 5.925781 10.566406 C 5.867188 11.558594 5.886719 33.003906 5.941406 34.277344 C 6.101562 37.964844 6.960938 41.351562 8.519531 44.46875 C 9.488281 46.398438 10.175781 47.421875 11.792969 49.355469 L 12.523438 50.21875 L 12.652344 50.070312 C 12.730469 49.992188 13.046875 49.519531 13.355469 49.03125 L 13.921875 48.136719 L 15.140625 46.933594 C 16.472656 45.613281 16.980469 45.195312 18.03125 44.582031 C 18.800781 44.128906 19.453125 43.703125 19.503906 43.621094 C 19.519531 43.597656 19.191406 43.117188 18.777344 42.566406 C 17.867188 41.359375 17.65625 41.039062 17.28125 40.304688 C 16.460938 38.683594 15.980469 37.003906 15.726562 34.847656 C 15.648438 34.210938 15.632812 33.28125 15.609375 28.0625 C 15.574219 21.199219 15.628906 21.941406 15.113281 21.351562 C 14.96875 21.183594 14.625 20.761719 14.363281 20.410156 C 13.894531 19.789062 13.253906 19.082031 13.164062 19.082031 C 13.144531 19.082031 13.125 22.078125 13.125 25.742188 C 13.125 29.402344 13.113281 32.398438 13.101562 32.398438 C 13.054688 32.398438 11.75 31.617188 11.667969 31.535156 C 11.582031 31.460938 11.574219 31.230469 11.5625 28.75 C 11.550781 27.257812 11.558594 24.035156 11.570312 21.582031 C 11.59375 17.5 11.589844 17.101562 11.507812 16.925781 C 11.402344 16.683594 10.148438 15.097656 9.289062 14.117188 L 9.148438 13.953125 L 9.144531 21.898438 C 9.144531 26.273438 9.128906 29.847656 9.109375 29.847656 C 9.046875 29.847656 8.5 29.527344 8.054688 29.230469 L 7.609375 28.929688 L 7.574219 28.179688 C 7.554688 27.765625 7.554688 23.996094 7.574219 19.796875 C 7.609375 12.234375 7.609375 12.167969 7.507812 11.941406 C 7.425781 11.757812 6.3125 10.316406 6.023438 10.011719 C 5.972656 9.953125 5.953125 10.066406 5.925781 10.566406 Z M 5.925781 10.566406 "/>
<path style=" stroke:none;fill-rule:nonzero;fill:rgb(0%,0%,0%);fill-opacity:1;" d="M 30.78125 16.066406 C 29.953125 16.617188 27.613281 18.871094 26.882812 19.828125 C 25.34375 21.835938 23.972656 24.351562 23.277344 26.449219 C 22.707031 28.148438 22.367188 30.632812 22.449219 32.398438 C 22.609375 35.730469 23.574219 38.480469 25.566406 41.234375 C 25.78125 41.539062 26.0625 41.929688 26.183594 42.101562 L 26.414062 42.417969 L 25.378906 42.683594 C 22.949219 43.320312 21.128906 44.050781 19.582031 45.015625 C 17.660156 46.210938 15.152344 48.621094 14.210938 50.203125 C 13.996094 50.550781 13.746094 51.152344 13.746094 51.300781 C 13.746094 51.566406 15.640625 53.105469 17.253906 54.164062 C 22.417969 57.515625 28.53125 58.820312 34.824219 57.902344 C 37.789062 57.46875 40.910156 56.378906 43.425781 54.890625 C 45.507812 53.667969 47.753906 52 48.46875 51.160156 C 48.867188 50.6875 48.867188 50.671875 48.671875 50.320312 C 48.199219 49.496094 47.289062 48.382812 46.3125 47.449219 C 44.160156 45.382812 41.996094 44.140625 38.621094 43.03125 C 37.484375 42.660156 37.550781 42.75 37.828125 41.992188 C 37.910156 41.75 38.089844 41.269531 38.21875 40.917969 C 38.941406 38.914062 39.554688 36.285156 39.8125 34.109375 C 39.925781 33.148438 39.949219 30.5625 39.84375 29.746094 C 39.480469 26.820312 38.664062 24.5 37.144531 22.085938 C 36.011719 20.289062 33.894531 17.890625 32.1875 16.476562 C 31.847656 16.195312 31.296875 15.816406 31.21875 15.816406 C 31.1875 15.816406 30.996094 15.929688 30.78125 16.066406 Z M 30.507812 20.140625 C 30.488281 21.734375 30.460938 23.039062 30.457031 23.054688 C 30.386719 23.128906 27.332031 20.53125 27.332031 20.390625 C 27.332031 20.226562 28.757812 18.640625 29.53125 17.945312 C 29.972656 17.558594 30.394531 17.246094 30.5 17.246094 C 30.53125 17.246094 30.53125 18.398438 30.507812 20.140625 Z M 32.445312 19.972656 C 32.632812 20.144531 32.980469 20.433594 33.222656 20.613281 C 34.109375 21.273438 34.632812 21.917969 34.707031 22.460938 L 34.734375 22.671875 L 34.597656 22.585938 C 34.226562 22.347656 33.972656 22.246094 33.742188 22.246094 C 33.457031 22.246094 33.289062 22.347656 33.191406 22.582031 C 33.082031 22.835938 33.101562 23.011719 33.277344 23.359375 C 33.515625 23.828125 33.902344 24.101562 34.75 24.402344 C 35.6875 24.734375 36.15625 25.046875 36.386719 25.484375 C 36.542969 25.777344 36.574219 26.476562 36.453125 26.839844 C 36.265625 27.394531 35.9375 27.726562 35.523438 27.789062 C 35.351562 27.816406 35.332031 27.8125 35.355469 27.726562 C 35.371094 27.671875 35.414062 27.445312 35.445312 27.21875 C 35.535156 26.503906 35.363281 25.992188 34.941406 25.785156 C 34.65625 25.648438 34.042969 25.652344 33.761719 25.800781 C 32.941406 26.234375 32.84375 27.101562 33.519531 27.933594 C 33.972656 28.492188 34.449219 28.789062 35.902344 29.433594 C 36.761719 29.816406 37.085938 30.003906 37.417969 30.328125 C 38.273438 31.160156 38.203125 32.566406 37.269531 33.335938 C 36.859375 33.679688 36.269531 33.78125 35.808594 33.597656 L 35.585938 33.503906 L 35.914062 33.359375 C 36.503906 33.089844 36.703125 32.800781 36.707031 32.210938 C 36.707031 31.882812 36.695312 31.820312 36.554688 31.628906 C 36.316406 31.289062 35.890625 31.097656 35.421875 31.097656 C 34.988281 31.101562 34.734375 31.210938 34.445312 31.527344 C 34.183594 31.816406 34.085938 32.183594 34.109375 32.800781 C 34.125 33.222656 34.152344 33.339844 34.296875 33.644531 C 34.550781 34.179688 34.867188 34.582031 35.75 35.484375 C 36.191406 35.941406 36.671875 36.460938 36.808594 36.636719 C 37.460938 37.484375 37.695312 38.433594 37.488281 39.386719 C 37.226562 40.609375 36.0625 43.433594 35.128906 45.121094 C 34.78125 45.75 34.125 46.765625 33.894531 47.03125 L 33.789062 47.152344 L 33.589844 46.996094 C 33.367188 46.820312 32.316406 45.539062 32.316406 45.445312 C 32.316406 45.414062 32.558594 45.214844 32.859375 45.007812 C 34.007812 44.222656 34.445312 43.886719 34.953125 43.390625 C 35.855469 42.503906 36.214844 41.839844 36.21875 41.039062 C 36.21875 39.796875 35.316406 38.503906 33.347656 36.921875 C 32.539062 36.277344 32.246094 35.96875 32.035156 35.546875 C 31.804688 35.078125 31.722656 34.695312 31.722656 34.078125 C 31.722656 33.421875 31.84375 32.898438 32.121094 32.347656 C 32.316406 31.960938 32.820312 31.417969 33.753906 30.582031 C 33.945312 30.410156 34.101562 30.234375 34.101562 30.199219 C 34.101562 30.160156 33.972656 30.050781 33.816406 29.960938 C 32.753906 29.332031 31.878906 27.800781 31.878906 26.585938 C 31.878906 25.773438 32.113281 25.285156 32.699219 24.851562 L 33.078125 24.570312 L 32.636719 24.148438 C 31.914062 23.449219 31.878906 23.300781 31.878906 21.082031 L 31.878906 19.535156 L 31.996094 19.597656 C 32.058594 19.628906 32.261719 19.796875 32.445312 19.972656 Z M 27.179688 21.371094 C 27.363281 21.503906 27.746094 21.820312 28.023438 22.070312 C 29.160156 23.078125 30.058594 23.839844 30.289062 23.996094 L 30.53125 24.160156 L 30.535156 27.078125 C 30.535156 29.585938 30.523438 30 30.460938 30 C 30.359375 30 29.675781 29.484375 29.140625 29 C 28.898438 28.785156 28.078125 28.015625 27.308594 27.296875 C 25.730469 25.816406 25.304688 25.433594 24.902344 25.089844 L 24.617188 24.859375 L 24.6875 24.613281 C 24.789062 24.230469 25.125 23.566406 25.628906 22.730469 C 26.160156 21.859375 26.6875 21.121094 26.785156 21.121094 C 26.820312 21.121094 27 21.234375 27.179688 21.371094 Z M 25.195312 26.417969 C 25.90625 27.039062 26.957031 28 28.789062 29.710938 C 29.988281 30.820312 30.390625 31.230469 30.453125 31.382812 C 30.523438 31.554688 30.535156 31.980469 30.53125 34.734375 C 30.523438 36.464844 30.507812 37.933594 30.488281 38 C 30.457031 38.117188 30.441406 38.109375 30.003906 37.78125 C 29.5 37.410156 27.90625 36.097656 26.148438 34.621094 C 25.511719 34.085938 24.628906 33.363281 24.183594 33.007812 C 23.746094 32.660156 23.3125 32.277344 23.222656 32.152344 C 23.082031 31.949219 23.066406 31.886719 23.054688 31.433594 C 23.007812 30.164062 23.710938 26.652344 24.160156 25.878906 L 24.289062 25.660156 L 24.496094 25.816406 C 24.605469 25.910156 24.921875 26.179688 25.195312 26.417969 Z M 35.738281 31.484375 C 35.960938 31.566406 36.214844 31.835938 36.273438 32.054688 C 36.429688 32.617188 35.949219 33.164062 35.355469 33.097656 C 35.085938 33.066406 34.902344 32.949219 34.730469 32.699219 C 34.628906 32.554688 34.609375 32.476562 34.628906 32.230469 C 34.652344 31.878906 34.765625 31.703125 35.082031 31.539062 C 35.335938 31.417969 35.515625 31.398438 35.738281 31.484375 Z M 23.683594 33.5625 C 24.128906 33.898438 25.476562 35.023438 26.9375 36.273438 C 27.644531 36.878906 28.660156 37.714844 29.179688 38.136719 C 30.21875 38.96875 30.417969 39.167969 30.488281 39.46875 C 30.542969 39.714844 30.550781 45.050781 30.492188 45.050781 C 30.46875 45.050781 30.3125 44.96875 30.144531 44.867188 C 29.058594 44.222656 27.363281 42.566406 26.144531 40.964844 C 25.574219 40.214844 25.25 39.679688 24.75 38.679688 C 23.8125 36.816406 23.246094 35.027344 23.164062 33.710938 L 23.132812 33.203125 L 23.253906 33.265625 C 23.324219 33.300781 23.515625 33.433594 23.683594 33.5625 Z M 32.503906 36.722656 C 32.578125 36.773438 32.9375 37.085938 33.296875 37.421875 C 35.066406 39.050781 35.265625 39.273438 35.582031 39.933594 C 35.75 40.269531 35.777344 40.386719 35.796875 40.757812 C 35.808594 41.117188 35.796875 41.25 35.699219 41.492188 C 35.449219 42.160156 34.691406 43.054688 33.777344 43.796875 C 33.269531 44.199219 32.5 44.710938 32.308594 44.765625 L 32.1875 44.800781 L 32.1875 40.71875 C 32.1875 36.863281 32.195312 36.632812 32.28125 36.632812 C 32.328125 36.632812 32.429688 36.671875 32.503906 36.722656 Z M 27.242188 43.332031 C 27.320312 43.507812 27.507812 44.101562 27.652344 44.648438 L 27.921875 45.636719 L 27.921875 46.757812 C 27.925781 47.683594 27.910156 47.9375 27.832031 48.210938 C 27.78125 48.390625 27.71875 48.566406 27.695312 48.597656 C 27.625 48.671875 25.511719 48.105469 24.730469 47.804688 C 23.863281 47.472656 22.035156 46.53125 21.261719 46.019531 C 20.765625 45.6875 20.367188 45.328125 20.433594 45.257812 C 20.507812 45.1875 22.15625 44.433594 23.066406 44.054688 C 24.578125 43.4375 26.050781 43.03125 26.839844 43.015625 L 27.101562 43.007812 Z M 38.082031 43.515625 C 39.679688 43.964844 41.511719 44.714844 42.128906 45.179688 C 42.277344 45.289062 42.304688 45.332031 42.265625 45.414062 C 42.1875 45.546875 40.847656 46.417969 40.144531 46.785156 C 38.25 47.773438 36.21875 48.519531 35.015625 48.667969 C 34.433594 48.734375 34.386719 48.71875 34.433594 48.429688 C 34.464844 48.167969 34.550781 48.015625 35.0625 47.285156 C 35.59375 46.53125 35.949219 45.898438 36.613281 44.550781 L 37.195312 43.367188 L 37.371094 43.367188 C 37.464844 43.367188 37.785156 43.433594 38.082031 43.515625 Z M 19.988281 45.777344 C 20.09375 45.835938 20.480469 46.097656 20.847656 46.355469 C 21.21875 46.617188 21.921875 47.039062 22.417969 47.304688 C 22.914062 47.570312 23.34375 47.820312 23.367188 47.863281 C 23.40625 47.921875 22.878906 48.726562 21.183594 51.1875 L 18.949219 54.441406 L 18.5 54.203125 C 17.671875 53.757812 15.835938 52.453125 15.085938 51.765625 C 14.929688 51.621094 14.726562 51.441406 14.625 51.371094 L 14.445312 51.242188 L 14.632812 50.863281 C 15.304688 49.46875 17.492188 47.121094 19.15625 46.015625 C 19.453125 45.820312 19.714844 45.664062 19.746094 45.664062 C 19.777344 45.664062 19.886719 45.714844 19.988281 45.777344 Z M 43.394531 45.914062 C 44.34375 46.496094 45.746094 47.652344 46.457031 48.4375 C 47 49.039062 47.796875 50.066406 47.945312 50.363281 C 48.054688 50.558594 48.054688 50.566406 47.949219 50.703125 C 47.734375 51.007812 46.757812 51.851562 45.710938 52.652344 C 45.042969 53.152344 44.128906 53.773438 44.046875 53.773438 C 43.894531 53.773438 43.4375 53.191406 42.40625 51.683594 C 41.996094 51.082031 41.335938 50.140625 40.933594 49.597656 C 40.21875 48.621094 39.761719 47.871094 39.792969 47.726562 C 39.804688 47.679688 42.890625 45.679688 42.976562 45.664062 C 42.980469 45.664062 43.171875 45.777344 43.394531 45.914062 Z M 28.714844 46.21875 C 29.054688 46.390625 29.0625 46.433594 29.0625 47.601562 L 29.0625 48.648438 L 29.371094 48.808594 C 29.542969 48.902344 30.070312 49.117188 30.550781 49.289062 C 31.027344 49.464844 31.449219 49.632812 31.492188 49.664062 C 31.5625 49.714844 31.5625 49.808594 31.515625 50.433594 C 31.488281 50.820312 31.457031 51.152344 31.4375 51.164062 C 31.429688 51.179688 30.839844 50.992188 30.136719 50.75 C 29.433594 50.507812 28.824219 50.304688 28.789062 50.296875 C 28.742188 50.285156 28.664062 50.460938 28.546875 50.816406 C 28.261719 51.722656 28.25 51.640625 28.660156 51.878906 C 28.851562 51.992188 29.613281 52.351562 30.351562 52.679688 C 32.40625 53.582031 32.597656 53.679688 32.753906 53.859375 C 32.972656 54.105469 33.164062 54.796875 33 54.726562 C 32.011719 54.355469 27.863281 52.914062 27.824219 52.929688 C 27.792969 52.9375 27.671875 53.117188 27.566406 53.316406 C 27.410156 53.617188 27.382812 53.691406 27.441406 53.734375 C 27.664062 53.886719 28.96875 54.46875 30.488281 55.097656 C 32.277344 55.832031 33 56.160156 33.105469 56.289062 C 33.164062 56.355469 33.136719 56.378906 32.929688 56.449219 C 32.621094 56.546875 31.066406 56.785156 30.742188 56.785156 C 30.5625 56.785156 30.34375 56.710938 29.785156 56.449219 C 27.765625 55.507812 26.996094 55.183594 26.6875 55.121094 C 26.519531 55.089844 26.515625 55.101562 26.25 55.550781 L 25.988281 56.007812 L 25.800781 55.96875 C 25.441406 55.886719 25.316406 55.808594 25.316406 55.671875 C 25.316406 55.597656 25.503906 55.257812 25.785156 54.835938 C 26.574219 53.652344 27.550781 51.679688 27.914062 50.535156 C 28.238281 49.53125 28.320312 48.976562 28.363281 47.648438 C 28.40625 46.5 28.441406 46.121094 28.5 46.121094 C 28.515625 46.121094 28.605469 46.167969 28.714844 46.21875 Z M 39.257812 48.339844 C 39.425781 48.621094 41.492188 51.546875 42.015625 52.25 C 42.449219 52.828125 43.007812 53.667969 43.164062 53.96875 L 43.296875 54.234375 L 43.003906 54.421875 C 41.90625 55.117188 39.59375 56.117188 38.765625 56.25 L 38.550781 56.285156 L 38.140625 55.671875 C 37.148438 54.21875 36.578125 53.214844 35.574219 51.164062 C 35.074219 50.148438 34.679688 49.308594 34.6875 49.296875 C 34.707031 49.285156 35.222656 49.152344 35.839844 49.003906 C 36.460938 48.851562 37.320312 48.605469 37.742188 48.453125 C 38.828125 48.066406 38.8125 48.070312 38.957031 48.066406 C 39.058594 48.058594 39.121094 48.117188 39.257812 48.339844 Z M 25.160156 48.523438 C 25.460938 48.636719 26.085938 48.820312 26.554688 48.9375 C 27.027344 49.050781 27.445312 49.164062 27.492188 49.1875 C 27.847656 49.371094 26.414062 52.773438 25.027344 55.023438 C 24.753906 55.472656 24.433594 55.996094 24.320312 56.183594 C 24.070312 56.605469 24.054688 56.605469 23.234375 56.347656 C 22.234375 56.027344 20.066406 55.117188 19.691406 54.855469 C 19.632812 54.816406 19.679688 54.703125 19.945312 54.273438 C 20.582031 53.25 22.304688 50.734375 23.476562 49.117188 L 24.097656 48.257812 L 24.355469 48.289062 C 24.5 48.308594 24.863281 48.417969 25.160156 48.523438 Z M 25.160156 48.523438 "/>
<path style=" stroke:none;fill-rule:nonzero;fill:rgb(0%,0%,0%);fill-opacity:1;" d="M 11.925781 56.796875 C 11.679688 56.941406 11.167969 57.617188 11.128906 57.839844 C 11.078125 58.117188 11.136719 58.40625 11.289062 58.601562 C 11.492188 58.859375 11.902344 59.082031 12.203125 59.082031 C 12.445312 59.082031 12.449219 59.078125 12.710938 58.746094 C 12.851562 58.554688 12.96875 58.386719 12.96875 58.371094 C 12.964844 58.355469 12.808594 58.226562 12.621094 58.089844 L 12.28125 57.839844 L 12.175781 57.964844 L 12.082031 58.085938 L 12.246094 58.21875 L 12.410156 58.355469 L 12.292969 58.515625 C 12.15625 58.695312 12.027344 58.714844 11.800781 58.578125 C 11.589844 58.445312 11.492188 58.21875 11.570312 58.003906 C 11.648438 57.785156 12.039062 57.269531 12.203125 57.171875 C 12.390625 57.058594 12.617188 57.070312 12.78125 57.195312 C 12.90625 57.296875 12.921875 57.339844 12.910156 57.539062 C 12.894531 57.746094 12.910156 57.785156 13.054688 57.890625 L 13.222656 58.019531 L 13.304688 57.851562 C 13.476562 57.527344 13.351562 57.183594 12.949219 56.867188 C 12.792969 56.738281 12.699219 56.710938 12.4375 56.691406 C 12.171875 56.683594 12.085938 56.699219 11.925781 56.796875 Z M 11.925781 56.796875 "/>
<path style=" stroke:none;fill-rule:nonzero;fill:rgb(0%,0%,0%);fill-opacity:1;" d="M 49.175781 57.148438 C 49.09375 57.203125 49.03125 57.269531 49.03125 57.296875 C 49.03125 57.332031 50.269531 59.101562 50.351562 59.179688 C 50.382812 59.214844 50.734375 58.960938 50.722656 58.90625 C 50.683594 58.796875 49.414062 57.046875 49.367188 57.046875 C 49.339844 57.046875 49.253906 57.089844 49.175781 57.148438 Z M 49.175781 57.148438 "/>
<path style=" stroke:none;fill-rule:nonzero;fill:rgb(0%,0%,0%);fill-opacity:1;" d="M 48.605469 57.558594 C 48.5 57.621094 48.410156 57.683594 48.410156 57.695312 C 48.410156 57.71875 48.542969 58.058594 48.695312 58.464844 C 48.851562 58.871094 48.96875 59.210938 48.964844 59.214844 C 48.957031 59.21875 48.675781 58.972656 48.339844 58.667969 C 47.859375 58.238281 47.703125 58.128906 47.640625 58.164062 C 47.414062 58.289062 47.414062 58.269531 47.636719 58.984375 C 47.75 59.359375 47.859375 59.714844 47.875 59.769531 C 47.890625 59.828125 47.640625 59.617188 47.320312 59.300781 L 46.734375 58.726562 L 46.566406 58.832031 C 46.472656 58.890625 46.394531 58.953125 46.394531 58.972656 C 46.394531 58.988281 46.777344 59.382812 47.242188 59.839844 L 48.089844 60.679688 L 48.277344 60.566406 C 48.382812 60.5 48.464844 60.433594 48.464844 60.417969 C 48.464844 60.398438 48.359375 60.054688 48.238281 59.652344 C 48.113281 59.253906 48.023438 58.929688 48.039062 58.929688 C 48.050781 58.929688 48.261719 59.105469 48.5 59.320312 C 48.742188 59.539062 49.007812 59.769531 49.089844 59.835938 L 49.238281 59.960938 L 49.421875 59.847656 C 49.550781 59.765625 49.59375 59.710938 49.574219 59.652344 C 49.550781 59.582031 48.875 57.683594 48.820312 57.515625 C 48.804688 57.472656 48.742188 57.484375 48.605469 57.558594 Z M 48.605469 57.558594 "/>
<path style=" stroke:none;fill-rule:nonzero;fill:rgb(0%,0%,0%);fill-opacity:1;" d="M 13.34375 58.609375 C 12.992188 59.140625 12.710938 59.589844 12.710938 59.609375 C 12.710938 59.628906 13.003906 59.835938 13.371094 60.078125 L 14.027344 60.5 L 14.113281 60.390625 C 14.167969 60.332031 14.210938 60.253906 14.210938 60.226562 C 14.210938 60.195312 13.996094 60.046875 13.746094 59.878906 L 13.277344 59.582031 L 13.367188 59.433594 C 13.417969 59.351562 13.507812 59.222656 13.5625 59.148438 L 13.671875 59.015625 L 14.074219 59.285156 C 14.496094 59.558594 14.488281 59.558594 14.621094 59.328125 C 14.667969 59.253906 14.605469 59.195312 14.265625 58.976562 L 13.851562 58.71875 L 14.011719 58.46875 C 14.105469 58.320312 14.191406 58.226562 14.230469 58.25 C 14.261719 58.269531 14.484375 58.40625 14.71875 58.558594 C 15.058594 58.769531 15.164062 58.816406 15.199219 58.765625 C 15.355469 58.535156 15.367188 58.550781 14.675781 58.089844 C 14.300781 57.851562 13.996094 57.652344 13.992188 57.652344 C 13.980469 57.652344 13.691406 58.085938 13.34375 58.609375 Z M 13.34375 58.609375 "/>
<path style=" stroke:none;fill-rule:nonzero;fill:rgb(0%,0%,0%);fill-opacity:1;" d="M 14.960938 59.691406 C 14.652344 60.257812 14.410156 60.722656 14.417969 60.734375 C 14.429688 60.738281 14.523438 60.796875 14.625 60.855469 L 14.816406 60.96875 L 15.195312 60.234375 C 15.40625 59.828125 15.582031 59.503906 15.59375 59.507812 C 15.597656 59.519531 15.546875 59.898438 15.472656 60.355469 C 15.402344 60.808594 15.34375 61.195312 15.34375 61.21875 C 15.34375 61.238281 15.40625 61.285156 15.476562 61.320312 C 15.640625 61.390625 15.597656 61.417969 16.25 60.847656 C 16.507812 60.621094 16.78125 60.382812 16.863281 60.308594 L 17.019531 60.179688 L 16.894531 60.382812 C 16.832031 60.496094 16.640625 60.820312 16.476562 61.105469 C 16.304688 61.390625 16.171875 61.636719 16.171875 61.648438 C 16.171875 61.710938 16.542969 61.898438 16.585938 61.855469 C 16.664062 61.773438 17.671875 59.917969 17.671875 59.855469 C 17.671875 59.828125 17.550781 59.738281 17.410156 59.667969 L 17.152344 59.539062 L 16.570312 60.058594 C 16.25 60.351562 15.9375 60.628906 15.882812 60.679688 C 15.773438 60.765625 15.777344 60.75 15.917969 59.914062 C 16 59.4375 16.070312 59.027344 16.070312 59 C 16.070312 58.953125 15.613281 58.671875 15.546875 58.671875 C 15.535156 58.671875 15.273438 59.132812 14.960938 59.691406 Z M 14.960938 59.691406 "/>
<path style=" stroke:none;fill-rule:nonzero;fill:rgb(0%,0%,0%);fill-opacity:1;" d="M 45.414062 59.441406 C 45.316406 59.503906 45.230469 59.554688 45.222656 59.558594 C 45.210938 59.578125 45.605469 61.9375 45.632812 61.964844 C 45.648438 61.976562 45.746094 61.953125 45.847656 61.902344 C 46.03125 61.820312 46.039062 61.800781 46.007812 61.632812 C 45.992188 61.535156 45.96875 61.417969 45.953125 61.367188 C 45.9375 61.304688 46.023438 61.226562 46.304688 61.074219 L 46.683594 60.871094 L 47.0625 61.238281 L 47.273438 61.148438 C 47.390625 61.097656 47.480469 61.039062 47.476562 61.023438 C 47.472656 60.984375 45.703125 59.371094 45.644531 59.351562 C 45.617188 59.339844 45.515625 59.386719 45.414062 59.441406 Z M 46.230469 60.421875 L 46.402344 60.597656 L 46.160156 60.734375 C 46.023438 60.808594 45.894531 60.851562 45.878906 60.832031 C 45.859375 60.804688 45.808594 60.601562 45.765625 60.371094 L 45.695312 59.953125 L 45.875 60.101562 C 45.980469 60.179688 46.140625 60.328125 46.230469 60.421875 Z M 46.230469 60.421875 "/>
<path style=" stroke:none;fill-rule:nonzero;fill:rgb(0%,0%,0%);fill-opacity:1;" d="M 44.105469 60.105469 C 43.875 60.222656 43.871094 60.167969 44.246094 60.996094 C 44.402344 61.332031 44.519531 61.617188 44.511719 61.628906 C 44.496094 61.636719 44.179688 61.429688 43.800781 61.164062 C 43.425781 60.898438 43.089844 60.664062 43.054688 60.648438 C 43.023438 60.628906 42.898438 60.648438 42.78125 60.691406 C 42.621094 60.753906 42.574219 60.800781 42.597656 60.859375 C 42.816406 61.417969 43.535156 62.90625 43.589844 62.90625 C 43.632812 62.90625 43.730469 62.871094 43.8125 62.832031 C 43.988281 62.738281 44.003906 62.808594 43.609375 61.941406 C 43.46875 61.621094 43.355469 61.351562 43.363281 61.339844 C 43.375 61.332031 43.714844 61.554688 44.121094 61.835938 L 44.851562 62.351562 L 45.078125 62.269531 L 45.300781 62.183594 L 45.234375 62.019531 C 45.113281 61.75 44.386719 60.15625 44.34375 60.082031 C 44.308594 60.019531 44.273438 60.023438 44.105469 60.105469 Z M 44.105469 60.105469 "/>
<path style=" stroke:none;fill-rule:nonzero;fill:rgb(0%,0%,0%);fill-opacity:1;" d="M 17.773438 61.128906 C 17.332031 61.601562 16.96875 62.007812 16.957031 62.027344 C 16.949219 62.054688 17.027344 62.109375 17.132812 62.164062 L 17.324219 62.25 L 17.511719 62.070312 C 17.613281 61.96875 17.726562 61.886719 17.757812 61.886719 C 17.785156 61.886719 17.957031 61.953125 18.140625 62.035156 L 18.464844 62.179688 L 18.449219 62.453125 L 18.441406 62.726562 L 18.652344 62.816406 C 18.765625 62.859375 18.859375 62.882812 18.859375 62.867188 C 18.859375 62.847656 18.90625 62.316406 18.960938 61.683594 C 19.019531 61.050781 19.066406 60.507812 19.066406 60.476562 C 19.066406 60.421875 18.746094 60.253906 18.636719 60.253906 C 18.601562 60.257812 18.210938 60.648438 17.773438 61.128906 Z M 18.570312 61.347656 C 18.527344 61.835938 18.535156 61.832031 18.144531 61.636719 L 17.96875 61.550781 L 18.269531 61.210938 C 18.433594 61.019531 18.574219 60.878906 18.585938 60.886719 C 18.59375 60.898438 18.589844 61.105469 18.570312 61.347656 Z M 18.570312 61.347656 "/>
<path style=" stroke:none;fill-rule:nonzero;fill:rgb(0%,0%,0%);fill-opacity:1;" d="M 19.59375 61.847656 C 19.390625 62.417969 19.21875 62.914062 19.210938 62.953125 C 19.191406 63.027344 19.582031 63.1875 19.640625 63.128906 C 19.652344 63.101562 19.734375 62.898438 19.808594 62.667969 L 19.949219 62.253906 L 20.390625 62.402344 C 20.636719 62.484375 20.847656 62.554688 20.855469 62.566406 C 20.871094 62.574219 20.804688 62.785156 20.71875 63.023438 C 20.636719 63.265625 20.5625 63.46875 20.5625 63.484375 C 20.5625 63.515625 20.976562 63.640625 21.003906 63.617188 C 21.039062 63.574219 21.75 61.523438 21.75 61.460938 C 21.75 61.382812 21.386719 61.257812 21.335938 61.316406 C 21.3125 61.335938 21.234375 61.539062 21.15625 61.769531 C 21.074219 62.023438 20.992188 62.191406 20.953125 62.191406 C 20.886719 62.191406 20.15625 61.941406 20.105469 61.90625 C 20.09375 61.898438 20.277344 61.296875 20.390625 60.988281 C 20.410156 60.945312 20.105469 60.816406 19.984375 60.816406 C 19.96875 60.816406 19.792969 61.277344 19.59375 61.847656 Z M 19.59375 61.847656 "/>
<path style=" stroke:none;fill-rule:nonzero;fill:rgb(0%,0%,0%);fill-opacity:1;" d="M 41.890625 61.035156 C 41.808594 61.066406 41.746094 61.117188 41.746094 61.140625 C 41.746094 61.210938 42.519531 63.222656 42.570312 63.273438 C 42.601562 63.316406 42.984375 63.167969 42.984375 63.109375 C 42.984375 62.972656 42.164062 60.996094 42.105469 60.984375 C 42.0625 60.984375 41.96875 61.003906 41.890625 61.035156 Z M 41.890625 61.035156 "/>
<path style=" stroke:none;fill-rule:nonzero;fill:rgb(0%,0%,0%);fill-opacity:1;" d="M 41.046875 61.335938 C 40.964844 61.367188 40.882812 61.398438 40.875 61.40625 C 40.871094 61.414062 40.988281 61.808594 41.152344 62.289062 C 41.460938 63.210938 41.46875 63.296875 41.230469 63.417969 C 41.078125 63.5 40.988281 63.476562 40.855469 63.339844 C 40.75 63.222656 40.722656 63.21875 40.542969 63.273438 C 40.304688 63.347656 40.300781 63.429688 40.527344 63.652344 C 40.683594 63.804688 40.734375 63.824219 40.964844 63.824219 C 41.410156 63.824219 41.800781 63.566406 41.875 63.214844 C 41.917969 63.027344 41.363281 61.273438 41.265625 61.277344 C 41.230469 61.277344 41.136719 61.304688 41.046875 61.335938 Z M 41.046875 61.335938 "/>
<path style=" stroke:none;fill-rule:nonzero;fill:rgb(0%,0%,0%);fill-opacity:1;" d="M 22.914062 61.851562 C 22.589844 63.132812 22.386719 64.007812 22.410156 64.039062 C 22.433594 64.054688 22.539062 64.085938 22.640625 64.105469 C 22.851562 64.148438 22.820312 64.191406 22.996094 63.5 L 23.058594 63.253906 L 23.265625 63.285156 C 23.539062 63.332031 23.746094 63.441406 23.78125 63.566406 C 23.796875 63.621094 23.789062 63.757812 23.761719 63.859375 C 23.660156 64.304688 23.6875 64.359375 24.09375 64.460938 C 24.222656 64.488281 24.230469 64.484375 24.203125 64.367188 C 24.183594 64.300781 24.195312 64.117188 24.226562 63.964844 C 24.292969 63.667969 24.246094 63.441406 24.09375 63.332031 C 24.019531 63.273438 24.023438 63.265625 24.140625 63.21875 C 24.578125 63.054688 24.617188 62.386719 24.203125 62.117188 C 24.128906 62.070312 23.820312 61.96875 23.507812 61.886719 L 22.941406 61.746094 Z M 23.871094 62.390625 C 24.015625 62.496094 24.050781 62.601562 24.003906 62.785156 C 23.953125 62.984375 23.796875 63.027344 23.449219 62.960938 C 23.117188 62.886719 23.132812 62.933594 23.257812 62.429688 L 23.304688 62.234375 L 23.523438 62.265625 C 23.640625 62.285156 23.796875 62.339844 23.871094 62.390625 Z M 23.871094 62.390625 "/>
<path style=" stroke:none;fill-rule:nonzero;fill:rgb(0%,0%,0%);fill-opacity:1;" d="M 38.507812 62.101562 L 38.292969 62.148438 L 38.367188 62.4375 C 38.410156 62.597656 38.453125 62.824219 38.472656 62.9375 L 38.503906 63.148438 L 38.097656 63.238281 C 37.875 63.289062 37.664062 63.335938 37.632812 63.351562 C 37.59375 63.367188 37.550781 63.277344 37.519531 63.128906 C 37.488281 62.992188 37.4375 62.765625 37.40625 62.621094 L 37.351562 62.355469 L 37.132812 62.414062 C 37.011719 62.4375 36.910156 62.46875 36.898438 62.472656 C 36.886719 62.484375 37.328125 64.464844 37.386719 64.65625 C 37.410156 64.738281 37.445312 64.742188 37.628906 64.71875 C 37.746094 64.695312 37.851562 64.679688 37.859375 64.667969 C 37.867188 64.664062 37.824219 64.453125 37.769531 64.210938 C 37.710938 63.960938 37.679688 63.738281 37.703125 63.722656 C 37.765625 63.667969 38.53125 63.507812 38.585938 63.539062 C 38.609375 63.554688 38.671875 63.765625 38.722656 64.003906 L 38.816406 64.445312 L 39.003906 64.414062 C 39.105469 64.390625 39.210938 64.359375 39.238281 64.335938 C 39.277344 64.296875 38.816406 62.152344 38.753906 62.085938 C 38.742188 62.070312 38.625 62.074219 38.507812 62.101562 Z M 38.507812 62.101562 "/>
<path style=" stroke:none;fill-rule:nonzero;fill:rgb(0%,0%,0%);fill-opacity:1;" d="M 24.878906 63.300781 C 24.769531 63.882812 24.675781 64.40625 24.675781 64.460938 C 24.671875 64.535156 24.722656 64.570312 24.871094 64.601562 C 24.980469 64.628906 25.082031 64.636719 25.09375 64.628906 C 25.121094 64.597656 25.523438 62.507812 25.523438 62.390625 C 25.523438 62.339844 25.492188 62.296875 25.453125 62.296875 C 25.414062 62.296875 25.316406 62.277344 25.234375 62.265625 L 25.082031 62.234375 Z M 24.878906 63.300781 "/>
<path style=" stroke:none;fill-rule:nonzero;fill:rgb(0%,0%,0%);fill-opacity:1;" d="M 25.988281 62.4375 C 25.984375 62.460938 25.90625 62.976562 25.8125 63.597656 C 25.714844 64.214844 25.648438 64.726562 25.65625 64.738281 C 25.667969 64.75 25.777344 64.765625 25.894531 64.765625 L 26.117188 64.769531 L 26.167969 64.386719 L 26.222656 64.003906 L 26.710938 64.019531 C 27.132812 64.035156 27.222656 64.019531 27.371094 63.929688 C 27.796875 63.667969 27.792969 62.96875 27.363281 62.710938 C 27.269531 62.652344 26.976562 62.570312 26.6875 62.523438 C 26.402344 62.476562 26.128906 62.433594 26.082031 62.421875 C 26.03125 62.414062 25.988281 62.421875 25.988281 62.4375 Z M 26.882812 62.90625 C 27.015625 62.90625 27.230469 63.136719 27.230469 63.277344 C 27.230469 63.347656 27.179688 63.464844 27.121094 63.539062 C 27.007812 63.679688 26.808594 63.710938 26.453125 63.640625 C 26.285156 63.605469 26.285156 63.605469 26.320312 63.371094 C 26.394531 62.835938 26.390625 62.839844 26.605469 62.878906 C 26.707031 62.890625 26.828125 62.90625 26.882812 62.90625 Z M 26.882812 62.90625 "/>
<path style=" stroke:none;fill-rule:nonzero;fill:rgb(0%,0%,0%);fill-opacity:1;" d="M 35.546875 62.652344 C 34.929688 62.765625 34.664062 63.214844 34.777344 63.9375 C 34.875 64.566406 35.003906 64.789062 35.367188 64.953125 C 35.910156 65.195312 36.578125 64.917969 36.738281 64.382812 C 36.84375 64.050781 36.730469 63.304688 36.542969 63.039062 C 36.320312 62.726562 35.933594 62.582031 35.546875 62.652344 Z M 36.0625 63.164062 C 36.214844 63.320312 36.238281 63.40625 36.300781 63.914062 C 36.34375 64.296875 36.269531 64.507812 36.058594 64.617188 C 35.769531 64.765625 35.46875 64.652344 35.351562 64.351562 C 35.277344 64.179688 35.207031 63.597656 35.226562 63.40625 C 35.273438 63.019531 35.785156 62.867188 36.0625 63.164062 Z M 36.0625 63.164062 "/>
<path style=" stroke:none;fill-rule:nonzero;fill:rgb(0%,0%,0%);fill-opacity:1;" d="M 27.929688 63.855469 C 27.378906 65.039062 27.378906 65.050781 27.722656 65.050781 C 27.867188 65.050781 27.894531 65.023438 27.972656 64.820312 C 28.078125 64.566406 28.101562 64.554688 28.660156 64.621094 C 28.917969 64.652344 28.921875 64.664062 28.957031 64.839844 C 29.019531 65.195312 29.027344 65.203125 29.273438 65.203125 C 29.488281 65.203125 29.5 65.191406 29.476562 65.085938 C 29.460938 65.023438 29.335938 64.492188 29.203125 63.90625 C 28.933594 62.757812 28.933594 62.765625 28.597656 62.757812 C 28.449219 62.757812 28.433594 62.777344 27.929688 63.855469 Z M 28.808594 64.101562 C 28.839844 64.289062 28.835938 64.300781 28.722656 64.269531 C 28.652344 64.25 28.519531 64.234375 28.429688 64.234375 C 28.222656 64.234375 28.222656 64.222656 28.484375 63.679688 L 28.636719 63.339844 L 28.707031 63.621094 C 28.742188 63.773438 28.789062 63.992188 28.808594 64.101562 Z M 28.808594 64.101562 "/>
<path style=" stroke:none;fill-rule:nonzero;fill:rgb(0%,0%,0%);fill-opacity:1;" d="M 29.894531 63.582031 C 29.878906 63.953125 29.847656 64.484375 29.828125 64.753906 L 29.796875 65.253906 L 30.261719 65.253906 L 30.296875 64.941406 C 30.3125 64.769531 30.328125 64.546875 30.328125 64.445312 L 30.328125 64.269531 L 30.601562 64.304688 C 30.746094 64.320312 30.972656 64.335938 31.097656 64.335938 L 31.320312 64.335938 L 31.285156 64.816406 C 31.246094 65.285156 31.253906 65.289062 31.371094 65.320312 C 31.5625 65.378906 31.722656 65.359375 31.730469 65.289062 C 31.730469 65.257812 31.761719 64.734375 31.796875 64.132812 C 31.832031 63.527344 31.855469 63.027344 31.851562 63.019531 C 31.84375 63.007812 31.738281 63 31.613281 62.992188 L 31.386719 62.984375 L 31.371094 63.441406 C 31.359375 63.691406 31.335938 63.921875 31.308594 63.945312 C 31.285156 63.972656 31.066406 63.972656 30.816406 63.953125 L 30.371094 63.917969 L 30.390625 63.414062 L 30.40625 62.90625 L 29.929688 62.90625 Z M 29.894531 63.582031 "/>
<path style=" stroke:none;fill-rule:nonzero;fill:rgb(0%,0%,0%);fill-opacity:1;" d="M 33.125 62.941406 C 33.015625 62.964844 33.003906 62.984375 33.035156 63.179688 C 33.050781 63.296875 33.101562 63.824219 33.148438 64.351562 L 33.238281 65.308594 L 33.425781 65.285156 C 33.527344 65.269531 33.785156 65.242188 33.996094 65.226562 C 34.691406 65.179688 34.769531 65.15625 34.769531 65.035156 C 34.769531 64.808594 34.726562 64.796875 34.207031 64.847656 C 33.941406 64.878906 33.710938 64.886719 33.699219 64.871094 C 33.679688 64.859375 33.628906 64.417969 33.578125 63.890625 C 33.527344 63.359375 33.484375 62.929688 33.484375 62.917969 C 33.480469 62.902344 33.273438 62.917969 33.125 62.941406 Z M 33.125 62.941406 "/>
</g>
</svg>
